<svg xmlns="http://www.w3.org/2000/svg" viewBox="0 0 750 500"><g id="freepik--Wall--inject-228"><polygon points="538.02 306.31 497.79 306.31 497.79 274.02 481.37 274.02 481.37 243.63 507.71 243.63 507.71 211.61 536.52 211.61 536.52 179.29 486.41 179.29 486.41 146.98 448.09 146.98 448.09 114.66 410.71 114.66 410.71 82.34 334.06 82.34 334.06 114.66 295.53 114.66 295.53 146.98 257.6 146.98 257.6 179.25 220.65 179.25 220.65 210 190.63 210 190.63 241.7 171.01 241.7 171.01 256.24 170.98 256.24 170.94 274.11 148.19 274.11 148.1 306.31 114.59 306.31 152.7 314.17 154.14 300.06 187.43 303.47 187.43 306.34 215.52 306.34 227.66 307.58 227.66 338.55 150.86 332.21 150.86 340.71 227.66 339.16 227.66 340.71 258.71 340.71 258.71 372.3 301.84 372.3 301.84 404.96 452.56 404.96 452.56 372.3 480.66 372.3 480.66 340.71 538.02 340.71 538.02 306.31" style="fill:#263238"></polygon><rect x="558.11" y="243.93" width="46.69" height="32.08" style="fill:#f5f5f5"></rect><path d="M604.81,276s0-.21,0-.6,0-1,0-1.71c0-1.51,0-3.69,0-6.47,0-5.59-.07-13.58-.11-23.3l.21.21-46.69.05.25-.25h0v16.65c0,5.37,0,10.53,0,15.4l-.24-.24,33.6.12,9.62.06,2.57,0,.67,0h.24l-.21,0H604l-2.52,0-9.57.06-33.76.12h-.23V276c0-4.87,0-10,0-15.4,0-2.69,0-5.42,0-8.21V244h0c-.23.23.32-.33.27-.27l46.69.05H605v.21c0,9.77-.09,17.81-.11,23.43,0,2.76,0,4.92-.06,6.43,0,.71,0,1.26,0,1.67S604.81,276,604.81,276Z" style="fill:#263238"></path><rect x="183.43" y="340.36" width="76.65" height="32.32" style="fill:#ebebeb"></rect><path d="M260.08,372.67s0-.2,0-.58,0-1,0-1.69c0-1.5,0-3.67-.05-6.45,0-5.59-.06-13.65-.1-23.59l.19.18-76.65.08h0l.26-.26c0,11.33,0,22.25,0,32.31l-.24-.24,54.93.11,15.94.07,4.28,0,1.11,0h.39l-.36,0h-1.08l-4.23,0-15.88.06-55.1.12h-.25v-.25c0-10.06,0-21,0-32.31v-.26h.27l76.65.07h.18v.19c0,10-.08,18.08-.1,23.7,0,2.77,0,4.92,0,6.41,0,.71,0,1.26,0,1.65S260.08,372.67,260.08,372.67Z" style="fill:#263238"></path><rect x="136.73" y="340.25" width="46.69" height="32.53" style="fill:#f5f5f5"></rect><path d="M183.43,372.78s0-.22,0-.61,0-1,0-1.73c0-1.54,0-3.75,0-6.57,0-5.67-.07-13.77-.11-23.62l.2.21-46.69.05c-.06.06.49-.49.26-.25h0v16.89c0,5.45,0,10.68,0,15.61l-.24-.24,33.61.12,9.62.06,2.56,0h.67l.24,0h-.21l-.64,0-2.52,0-9.56.07-33.77.12h-.24v-.24c0-4.93,0-10.16,0-15.61,0-2.72,0-5.5,0-8.32v-8.57h0l.26-.27,46.69.05h.22v.21c0,9.9-.09,18.05-.11,23.75,0,2.8-.05,5-.06,6.52,0,.72,0,1.29,0,1.69S183.43,372.78,183.43,372.78Z" style="fill:#263238"></path><rect x="148.24" y="372.64" width="76.65" height="32.32" style="fill:#ebebeb"></rect><path d="M224.89,405s0-.21,0-.59,0-1,0-1.69c0-1.5,0-3.67,0-6.45,0-5.59-.06-13.65-.1-23.59l.18.18-76.64.08h0l.26-.26c0,11.33,0,22.26,0,32.32l-.25-.25,54.94.12,15.94.06,4.28,0h1.11l.38,0h-.35l-1.08,0-4.23,0-15.89.07-55.1.11H148V405c0-10.06,0-21,0-32.32v-.26h.27l76.64.07h.19v.19c0,10-.08,18.08-.1,23.7,0,2.77,0,4.92,0,6.41,0,.71,0,1.26,0,1.66S224.89,405,224.89,405Z" style="fill:#263238"></path><rect x="120.59" y="146.78" width="61.07" height="32.48" style="fill:#f5f5f5"></rect><path d="M181.66,179.25s0-.21,0-.59,0-1,0-1.71c0-1.51,0-3.7-.05-6.5,0-5.63-.06-13.72-.11-23.67l.2.19-61.07.07.26-.26h0v8.48q0,4.2,0,8.27c0,5.44,0,10.69,0,15.7l-.24-.24,43.85.12,12.65.06,3.38,0,.88,0h.31l-.28,0h-.85l-3.34,0-12.59.07-44,.12h-.25v-.25c0-5,0-10.26,0-15.7V146.8h0c-.06.05.49-.5.26-.27l61.07.07h.2v.2c0,10-.08,18.14-.1,23.79,0,2.79,0,5-.05,6.46,0,.71,0,1.27,0,1.67S181.66,179.25,181.66,179.25Z" style="fill:#263238"></path><rect x="172.04" y="114.66" width="46.69" height="32.12" style="fill:#ebebeb"></rect><path d="M218.74,146.78s0-.22,0-.61,0-1,0-1.71c0-1.51,0-3.7-.05-6.48,0-5.59-.07-13.59-.11-23.32l.21.21-46.69,0c-.06.06.49-.49.25-.26h0v16.69c0,5.37,0,10.54,0,15.41l-.24-.23,33.6.11,9.63.07,2.56,0h.67l.24,0h-.85l-2.52,0-9.57.07L172,147h-.23v-.24c0-4.87,0-10,0-15.41q0-4,0-8.22v-8.47h0c-.23.23.32-.32.27-.26l46.69,0H219v.21c0,9.78-.09,17.82-.11,23.45,0,2.76,0,4.93-.06,6.44,0,.71,0,1.27,0,1.67S218.74,146.78,218.74,146.78Z" style="fill:#263238"></path><rect x="486.85" y="82.53" width="46.69" height="32.53" style="fill:#f5f5f5"></rect><path d="M533.54,115.05s0-.21,0-.6,0-1,0-1.74c0-1.54,0-3.75,0-6.57,0-5.67-.06-13.77-.11-23.61l.21.21-46.69.05c-.06,0,.49-.49.26-.26h0v8.58q0,4.25,0,8.33c0,5.45,0,10.67,0,15.6l-.23-.23,33.61.11,9.61.07,2.57,0h.9s-.06,0-.21,0h-.64l-2.52,0-9.56.06-33.76.12h-.24v-.24c0-4.93,0-10.15,0-15.6V82.54h0c-.24.23.31-.32.26-.26l46.69,0h.21v.21c0,9.9-.08,18-.11,23.74,0,2.8,0,5,0,6.53,0,.72,0,1.28,0,1.69S533.54,115.05,533.54,115.05Z" style="fill:#263238"></path><rect x="487.97" y="405.07" width="46.69" height="32.53" style="fill:#f5f5f5"></rect><path d="M534.67,437.59s0-.21,0-.61,0-1,0-1.73c0-1.54,0-3.75,0-6.57,0-5.67-.07-13.77-.11-23.61l.21.21-46.69.05c-.06.05.49-.5.25-.26h0V422c0,5.44,0,10.67,0,15.6l-.24-.24,33.61.12,9.62.06,2.57,0,.66,0h.24a.85.85,0,0,1-.21,0h-.64l-2.52,0-9.56.06-33.77.12h-.23v-.24c0-4.93,0-10.16,0-15.6v-8.33c0-1.41,0-2.83,0-4.27v-4.31h0c-.23.23.32-.32.27-.26l46.69.05h.21v.21c0,9.89-.09,18-.11,23.74,0,2.8,0,5-.06,6.52,0,.73,0,1.29,0,1.7S534.67,437.59,534.67,437.59Z" style="fill:#263238"></path><rect x="211.54" y="405.07" width="46.69" height="32.53" style="fill:#f5f5f5"></rect><path d="M258.24,437.59s0-.21,0-.61,0-1,0-1.73c0-1.54,0-3.75-.05-6.57,0-5.67-.07-13.77-.11-23.61l.21.21-46.69.05c-.06.05.48-.5.25-.26h0V422c0,5.44,0,10.67,0,15.6l-.24-.24,33.61.12,9.62.06,2.56,0,.67,0h.24a.85.85,0,0,1-.21,0h-.64l-2.52,0-9.56.06-33.77.12h-.23v-.24c0-4.93,0-10.16,0-15.6,0-2.72,0-5.5,0-8.33v-8.58h0c-.23.23.32-.32.27-.26l46.69.05h.21v.21c-.05,9.89-.09,18-.11,23.74,0,2.8,0,5-.06,6.52,0,.73,0,1.29,0,1.7S258.24,437.59,258.24,437.59Z" style="fill:#263238"></path><rect x="299.68" y="50.02" width="76.65" height="32.32" style="fill:#f5f5f5"></rect><path d="M376.33,82.34s0-.2,0-.59,0-1,0-1.69c0-1.49,0-3.66-.05-6.44,0-5.6-.05-13.65-.09-23.6l.18.19-76.65.07h0l.26-.26c0,11.34,0,22.26,0,32.32l-.25-.25,54.93.12,15.95.07,4.27,0,1.11,0h.39a2.29,2.29,0,0,1-.36,0h-1.08l-4.22,0-15.89.07-55.1.12h-.25v-.25c0-10.06,0-21,0-32.32v-.26h.26l76.65.08h.19V50c0,10-.08,18.09-.1,23.71,0,2.76,0,4.92-.05,6.41,0,.71,0,1.26,0,1.65S376.33,82.34,376.33,82.34Z" style="fill:#263238"></path><rect x="376.33" y="50.02" width="76.65" height="32.32" style="fill:#f5f5f5"></rect><path d="M453,82.34s0-.2,0-.59,0-1,0-1.69c0-1.49,0-3.66,0-6.44,0-5.6-.06-13.65-.1-23.6l.18.19-76.64.07h0l.26-.26c0,11.34,0,22.26,0,32.32l-.25-.25,54.93.12,15.95.07,4.27,0,1.11,0H453a2.13,2.13,0,0,1-.36,0h-1.08l-4.22,0-15.89.07-55.1.12h-.25v-.25c0-10.06,0-21,0-32.32v-.26h.27l76.64.08h.19V50c-.05,10-.08,18.09-.1,23.71,0,2.76,0,4.92-.05,6.41,0,.71,0,1.26,0,1.65S453,82.34,453,82.34Z" style="fill:#263238"></path><rect x="410.2" y="82.53" width="76.65" height="32.32" style="fill:#ebebeb"></rect><path d="M486.85,114.85s0-.21,0-.59,0-1,0-1.69c0-1.5,0-3.67-.05-6.45,0-5.59-.06-13.65-.1-23.59l.19.18-76.65.08h0l.26-.26c0,11.33,0,22.26,0,32.32l-.24-.25,54.93.11,15.94.07,4.28,0,1.11,0a3.06,3.06,0,0,1,.39,0h-.36l-1.08,0-4.22,0L465.3,115l-55.1.11H410v-.24c0-10.06,0-21,0-32.32v-.26h.26l76.65.07H487v.19c0,10-.07,18.08-.1,23.7,0,2.77,0,4.92,0,6.41,0,.71,0,1.26,0,1.65S486.85,114.85,486.85,114.85Z" style="fill:#263238"></path><rect x="448.09" y="115.05" width="76.65" height="32.32" style="fill:#f5f5f5"></rect><path d="M524.74,147.37s0-.2,0-.59,0-1,0-1.69c0-1.49,0-3.66-.05-6.45,0-5.59-.06-13.64-.1-23.59l.19.19-76.65.07h0l.26-.26c0,11.34,0,22.26,0,32.32l-.24-.25,54.93.12,15.94.07,4.28,0,1.11,0h.39l-.36,0H523.3l-4.22,0-15.89.07-55.1.12h-.25v-.25c0-10.06,0-21,0-32.32v-.26h.26l76.65.08h.18v.18c0,10-.07,18.09-.1,23.71,0,2.76,0,4.92,0,6.4,0,.72,0,1.27,0,1.66S524.74,147.37,524.74,147.37Z" style="fill:#263238"></path><rect x="486.41" y="147.37" width="76.65" height="32.32" style="fill:#ebebeb"></rect><path d="M563.06,179.69s0-.21,0-.59,0-1,0-1.69c0-1.49,0-3.66,0-6.45,0-5.59-.06-13.64-.1-23.59l.18.19-76.64.07h0l.26-.26c0,11.33,0,22.26,0,32.32l-.25-.25,54.93.12,15.95.07,4.27,0h1.12l.38,0h-.35l-1.09,0-4.22,0-15.89.07-55.1.12h-.25v-.25c0-10.06,0-21,0-32.32v-.26h.27l76.64.08h.19v.18c0,10-.08,18.09-.1,23.7,0,2.77,0,4.93,0,6.41,0,.71,0,1.27,0,1.66S563.06,179.69,563.06,179.69Z" style="fill:#263238"></path><rect x="536.82" y="179.68" width="76.65" height="32.32" style="fill:#f5f5f5"></rect><path d="M613.47,212s0-.21,0-.59,0-1,0-1.69c0-1.5,0-3.66,0-6.45,0-5.59-.06-13.64-.1-23.59l.18.18-76.64.08h0l.26-.26c0,11.33,0,22.26,0,32.32l-.25-.25,54.93.12,16,.07,4.27,0h1.11l.39,0h-.35L612,212l-4.22,0-15.89.07-55.1.12h-.25V212c0-10.06,0-21,0-32.32v-.26h.27l76.64.07h.19v.19c0,10-.08,18.09-.1,23.7,0,2.77,0,4.93,0,6.41,0,.71,0,1.26,0,1.66S613.47,212,613.47,212Z" style="fill:#263238"></path><rect x="507.61" y="211.38" width="76.65" height="32.32" style="fill:#ebebeb"></rect><path d="M584.26,243.69s0-.2,0-.58,0-1,0-1.69c0-1.5,0-3.67,0-6.45,0-5.59-.06-13.65-.1-23.59l.18.18-76.64.08h0l.26-.26c0,11.33,0,22.25,0,32.31l-.25-.24,54.93.11,16,.07,4.27,0,1.11,0h.39a2.13,2.13,0,0,1-.36,0h-1.08l-4.22,0-15.89.06-55.1.12h-.25v-.25c0-10.06,0-21,0-32.31v-.26h.27l76.64.07h.19v.19c-.05,10-.08,18.08-.1,23.7,0,2.77,0,4.92-.05,6.41,0,.71,0,1.26,0,1.65S584.26,243.69,584.26,243.69Z" style="fill:#263238"></path><rect x="481.56" y="243.69" width="76.65" height="32.32" style="fill:#f5f5f5"></rect><path d="M558.21,276s0-.2,0-.59,0-1,0-1.69c0-1.49,0-3.66,0-6.45,0-5.59,0-13.64-.1-23.59l.19.19-76.65.07h0l.26-.26c0,11.34,0,22.26,0,32.32l-.25-.25,54.93.12,16,.07,4.27,0,1.11,0h.39l-.36,0h-1.08l-4.22,0-15.89.07-55.1.12h-.25V276c0-10.06,0-21,0-32.32v-.26h.26l76.65.08h.18v.18c0,10-.07,18.09-.1,23.71,0,2.76,0,4.92,0,6.41,0,.71,0,1.26,0,1.65S558.21,276,558.21,276Z" style="fill:#263238"></path><rect x="584.16" y="211.38" width="65.25" height="32.32" style="fill:#f5f5f5"></rect><path d="M649.42,243.69s0-.2,0-.59,0-1,0-1.69c0-1.5,0-3.67,0-6.46,0-5.59-.06-13.65-.11-23.57l.2.19-65.25.07c-.24.23.31-.32.25-.26h0v16.66c0,5.4,0,10.64,0,15.63l-.25-.24,46.83.12,13.53.06,3.62,0,1,0h.33l-.3,0h-.92l-3.57,0-13.48.07-47,.12h-.24v-.25c0-5,0-10.23,0-15.63,0-2.71,0-5.45,0-8.24V211.4h0c0,.05.5-.5.27-.26l65.25.06h.19v.2c0,10-.08,18.07-.1,23.69,0,2.77,0,4.92,0,6.41,0,.72,0,1.27,0,1.66S649.42,243.69,649.42,243.69Z" style="fill:#263238"></path><rect x="497.63" y="276.07" width="76.65" height="32.32" style="fill:#ebebeb"></rect><path d="M574.28,308.39s0-.21,0-.59,0-1,0-1.69c0-1.5,0-3.67,0-6.45,0-5.59-.06-13.65-.1-23.59l.19.18-76.65.08h0l.26-.26c0,11.33,0,22.26,0,32.32l-.25-.25,54.93.12,15.94.07,4.28,0h1.11l.39,0h-.36l-1.08,0-4.22,0-15.89.07-55.1.12h-.25v-.25c0-10.06,0-21,0-32.32v-.26h.26l76.65.07h.18v.19c0,10-.07,18.09-.1,23.7,0,2.77,0,4.92,0,6.41,0,.71,0,1.26,0,1.66S574.28,308.39,574.28,308.39Z" style="fill:#263238"></path><rect x="538.35" y="308.39" width="76.65" height="32.32" style="fill:#f5f5f5"></rect><path d="M615,340.71s0-.21,0-.59,0-1,0-1.69c0-1.49,0-3.66,0-6.45,0-5.59-.06-13.64-.1-23.59l.18.19-76.64.07h0l.26-.26c0,11.33,0,22.26,0,32.32l-.25-.25,54.94.12,15.94.07,4.28,0h1.11l.38,0a2.06,2.06,0,0,1-.35,0h-1.08l-4.23,0-15.89.07-55.1.12h-.25v-.25c0-10.06,0-21,0-32.32v-.26h.27l76.64.08h.19v.18c0,10-.08,18.09-.1,23.71,0,2.76,0,4.92-.05,6.4,0,.72,0,1.27,0,1.66S615,340.71,615,340.71Z" style="fill:#263238"></path><rect x="479.75" y="339.99" width="76.65" height="32.32" style="fill:#ebebeb"></rect><path d="M556.4,372.3s0-.2,0-.59,0-1,0-1.68c0-1.5,0-3.67-.05-6.45,0-5.59,0-13.65-.1-23.59l.19.18-76.65.08h0L480,340c0,11.33,0,22.25,0,32.31l-.25-.25,54.93.12,16,.07,4.27,0,1.11,0h.39l-.36,0H555l-4.22,0-15.89.07-55.1.12h-.25v-.25c0-10.06,0-21,0-32.31v-.27h.26l76.65.08h.18V340c0,10-.07,18.08-.1,23.7,0,2.76,0,4.92,0,6.41,0,.71,0,1.26,0,1.65S556.4,372.3,556.4,372.3Z" style="fill:#263238"></path><rect x="452.67" y="371.98" width="76.65" height="33.18" style="fill:#f5f5f5"></rect><path d="M529.32,405.17s0-.21,0-.6,0-1,0-1.74c0-1.53,0-3.76,0-6.62,0-5.74-.06-14-.11-24.23l.19.19-76.64.08h0l.26-.27c0,11.65,0,22.87,0,33.19l-.25-.25,54.95.12,15.93.07,4.28,0h1.1l.39,0H529l-1.08,0-4.22,0-15.87.07-55.12.12h-.25v-.25c0-10.32,0-21.54,0-33.19v-.26h.27l76.64.08h.19V372c0,10.27-.08,18.58-.1,24.34,0,2.84,0,5.06,0,6.58,0,.74,0,1.3,0,1.7S529.32,405.17,529.32,405.17Z" style="fill:#263238"></path><rect x="257.48" y="82.34" width="76.65" height="32.32" style="fill:#ebebeb"></rect><path d="M334.13,114.66s0-.21,0-.59,0-1,0-1.69c0-1.49,0-3.66,0-6.45,0-5.59-.06-13.64-.1-23.59l.19.19-76.65.07h0l.26-.26c0,11.33,0,22.26,0,32.32l-.25-.25,54.93.12,15.94.07,4.28,0h1.11l.39,0h-.36l-1.08,0-4.22,0-15.89.07-55.1.12h-.25v-.25c0-10.06,0-21,0-32.32v-.26h.26l76.65.08h.18v.18c0,10-.07,18.09-.1,23.7,0,2.77,0,4.93,0,6.41,0,.72,0,1.27,0,1.66S334.13,114.66,334.13,114.66Z" style="fill:#263238"></path><rect x="218.74" y="114.66" width="76.65" height="32.32" style="fill:#f5f5f5"></rect><path d="M295.39,147s0-.21,0-.59,0-1,0-1.69c0-1.5,0-3.67-.05-6.45,0-5.59-.05-13.64-.1-23.59l.19.18-76.65.08h0l.26-.26c0,11.33,0,22.26,0,32.32l-.25-.25,54.93.12,15.94.07,4.28,0H295l.39,0H295L294,147l-4.22,0-15.89.07-55.1.12h-.25V147c0-10.06,0-21,0-32.32v-.26h.26l76.65.07h.18v.19c0,10-.07,18.09-.1,23.7,0,2.77,0,4.92,0,6.41,0,.71,0,1.26,0,1.66S295.39,147,295.39,147Z" style="fill:#263238"></path><rect x="174.47" y="281.71" width="32.32" height="76.65" transform="translate(-147.14 477.13) rotate(-84.16)" style="fill:#f5f5f5"></rect><path d="M227.11,340s0-.21,0-.59.09-1,.15-1.68c.14-1.49.35-3.65.61-6.42.55-5.56,1.33-13.58,2.3-23.48l.17.2-76.26-7.72h0l.28-.23c-1.16,11.27-2.27,22.14-3.3,32.15l-.22-.27,54.64,5.7,15.85,1.69,4.25.47,1.11.12.38.06-.36,0-1.07-.1-4.21-.39L205.66,338l-54.83-5.49-.25,0,0-.25c1-10,2.13-20.88,3.27-32.15l0-.26.26,0h0l76.24,7.87h.19l0,.19c-1.06,9.93-1.92,18-2.51,23.57-.3,2.75-.54,4.89-.7,6.37-.08.71-.14,1.25-.19,1.64S227.11,340,227.11,340Z" style="fill:#263238"></path><rect x="94.29" y="241.7" width="76.65" height="32.32" style="fill:#ebebeb"></rect><path d="M170.94,274s0-.2,0-.59,0-1,0-1.69c0-1.49,0-3.66-.05-6.45,0-5.59,0-13.64-.09-23.59l.18.19L94.29,242h0l.26-.26c0,11.34,0,22.26,0,32.32l-.25-.25,54.93.12,15.95.07,4.27,0,1.11,0h.39a2.29,2.29,0,0,1-.36,0H169.5l-4.22,0-15.89.07-55.1.12H94V274c0-10.06,0-21,0-32.32v-.26h.26l76.65.08h.19v.18c0,10-.07,18.09-.09,23.71,0,2.76,0,4.92-.05,6.4,0,.72,0,1.27,0,1.66S170.94,274,170.94,274Z" style="fill:#263238"></path><rect x="114.35" y="209.79" width="76.65" height="32.32" style="fill:#f5f5f5"></rect><path d="M191,242.11s0-.21,0-.59,0-1,0-1.69c0-1.5,0-3.67-.05-6.45,0-5.59,0-13.65-.1-23.59l.19.18-76.65.08h0l.26-.26c0,11.33,0,22.26,0,32.32l-.25-.25,54.93.11,15.95.07,4.27,0,1.11,0,.39,0h-.36l-1.08,0-4.22,0-15.89.07-55.1.11h-.25v-.24c0-10.06,0-21,0-32.32v-.26h.26l76.65.07h.19v.19c0,10-.07,18.08-.1,23.7,0,2.77,0,4.92,0,6.41,0,.71,0,1.26,0,1.65S191,242.11,191,242.11Z" style="fill:#263238"></path><rect x="143.87" y="179.09" width="76.65" height="31.02" style="fill:#ebebeb"></rect><path d="M220.52,210.11s0-.19,0-.56,0-.92,0-1.62c0-1.43,0-3.51,0-6.18,0-5.36-.06-13.09-.1-22.66l.18.19-76.65.07h0l.26-.26c0,10.86,0,21.35,0,31l-.25-.25,54.91.12,16,.07,4.28,0,1.11,0h.39l-.36,0h-1.08l-4.23,0-15.9.07-55.08.11h-.25v-.25c0-9.67,0-20.16,0-31v-.26h.26l76.65.08h.18v.18c0,9.61-.07,17.38-.1,22.77,0,2.65,0,4.72,0,6.14,0,.68,0,1.21,0,1.59S220.52,210.11,220.52,210.11Z" style="fill:#263238"></path><rect x="181.66" y="146.78" width="76.65" height="32.32" style="fill:#f5f5f5"></rect><path d="M258.31,179.09s0-.2,0-.59,0-1,0-1.68c0-1.5,0-3.67,0-6.45,0-5.59-.05-13.65-.1-23.59l.19.18-76.65.08h0l.26-.26c0,11.33,0,22.25,0,32.31l-.25-.25,54.93.12,15.95.07,4.27,0,1.11,0h.39l-.36,0h-1.08l-4.22,0-15.89.07-55.1.12h-.25v-.25c0-10.06,0-21,0-32.31v-.27h.26l76.65.08h.18v.19c0,10-.07,18.08-.1,23.7,0,2.76,0,4.92,0,6.41,0,.71,0,1.26,0,1.65S258.31,179.09,258.31,179.09Z" style="fill:#263238"></path><rect x="335.26" y="405.17" width="76.65" height="32.32" style="fill:#f5f5f5"></rect><path d="M411.91,437.49s0-.21,0-.59,0-1,0-1.69c0-1.5,0-3.67-.05-6.45,0-5.59-.06-13.64-.1-23.59l.19.18-76.65.08h0l.26-.26c0,11.33,0,22.26,0,32.32l-.25-.25,54.93.12,15.94.07,4.28,0h1.11l.39,0h-.36l-1.08,0-4.22,0-15.89.07-55.1.12H335v-.25c0-10.06,0-21,0-32.32v-.26h.26l76.65.07h.18v.19c0,10-.07,18.09-.1,23.7,0,2.77,0,4.93,0,6.41,0,.71,0,1.26,0,1.66S411.91,437.49,411.91,437.49Z" style="fill:#263238"></path><rect x="411.32" y="405.17" width="76.65" height="32.32" style="fill:#ebebeb"></rect><path d="M488,437.49s0-.21,0-.59,0-1,0-1.69c0-1.5,0-3.67-.05-6.45,0-5.59-.06-13.64-.1-23.59l.18.18-76.64.08h0l.26-.26c0,11.33,0,22.26,0,32.32l-.25-.25,54.94.12,15.94.07,4.28,0h1.11l.38,0h-.35l-1.08,0-4.23,0-15.89.07-55.1.12h-.25v-.25c0-10.06,0-21,0-32.32v-.26h.27L488,405h.19v.19c0,10-.08,18.09-.1,23.7,0,2.77,0,4.93-.05,6.41,0,.71,0,1.26,0,1.66S488,437.49,488,437.49Z" style="fill:#263238"></path><rect x="258.75" y="405.17" width="76.65" height="32.32" style="fill:#ebebeb"></rect><path d="M335.4,437.49s0-.21,0-.59,0-1,0-1.69c0-1.5,0-3.67-.05-6.45,0-5.59-.05-13.64-.1-23.59l.19.18-76.65.08h0l.26-.26c0,11.33,0,22.26,0,32.32l-.25-.25,54.93.12,15.95.07,4.27,0H335l.39,0H335l-1.08,0-4.22,0-15.89.07-55.1.12h-.25v-.25c0-10.06,0-21,0-32.32v-.26h.26l76.65.07h.19v.19c0,10-.07,18.09-.1,23.7,0,2.77,0,4.93,0,6.41,0,.71,0,1.26,0,1.66S335.4,437.49,335.4,437.49Z" style="fill:#263238"></path><rect x="225.19" y="372.64" width="76.65" height="32.32" style="fill:#f5f5f5"></rect><path d="M301.84,405s0-.21,0-.59,0-1,0-1.69c0-1.5,0-3.67,0-6.45,0-5.59-.06-13.65-.1-23.59l.18.18-76.65.08h0l.26-.26c0,11.33,0,22.26,0,32.32l-.25-.25,54.93.12,15.95.06,4.27,0h1.11l.39,0h-.36l-1.08,0-4.22,0-15.89.07-55.1.11h-.25V405c0-10.06,0-21,0-32.32v-.26h.26l76.65.07H302v.19c0,10-.08,18.08-.1,23.7,0,2.77,0,4.92-.05,6.41,0,.71,0,1.26,0,1.66S301.84,405,301.84,405Z" style="fill:#263238"></path><rect x="354.37" y="437.49" width="76.65" height="32.32" style="fill:#f5f5f5"></rect><path d="M431,469.8s0-.2,0-.58,0-1,0-1.69c0-1.5,0-3.67-.05-6.45,0-5.59-.06-13.65-.1-23.59l.19.18-76.65.08h0l.26-.26c0,11.33,0,22.26,0,32.31l-.24-.24,54.93.11,15.94.07,4.28,0,1.11,0H431a1.41,1.41,0,0,1-.36,0l-1.08,0-4.23,0-15.88.07-55.1.11h-.25v-.25c0-10.05,0-21,0-32.31v-.26h.27l76.65.07h.18v.19c0,10-.08,18.08-.1,23.7,0,2.77,0,4.92-.05,6.41,0,.71,0,1.26,0,1.65S431,469.8,431,469.8Z" style="fill:#263238"></path><path d="M410.38,448.89c.05.13-6.42,2.89-14.46,6.16s-14.6,5.81-14.65,5.68,6.42-2.89,14.46-6.16S410.32,448.76,410.38,448.89Z" style="fill:#263238"></path><path d="M399.91,448a100.61,100.61,0,0,1-13.52,4.82A97.06,97.06,0,0,1,399.91,448Z" style="fill:#263238"></path><path d="M469.34,417.59c.05.14-6.88,2.82-15.48,6s-15.61,5.64-15.66,5.51,6.88-2.82,15.48-6S469.29,417.46,469.34,417.59Z" style="fill:#263238"></path><path d="M455.56,418.23a22.27,22.27,0,0,1-4.57,1.56,22.67,22.67,0,0,1-4.71,1.06,22.27,22.27,0,0,1,4.57-1.56A22.67,22.67,0,0,1,455.56,418.23Z" style="fill:#263238"></path><path d="M518.85,422.21a20.4,20.4,0,0,1-2.86,1c-1.77.58-4.23,1.39-6.91,2.36s-5.09,1.91-6.83,2.59a21.19,21.19,0,0,1-2.84,1.05,14.68,14.68,0,0,1,2.7-1.39c1.71-.77,4.1-1.77,6.8-2.74s5.17-1.73,7-2.22A15.57,15.57,0,0,1,518.85,422.21Z" style="fill:#263238"></path><path d="M506.49,385.29c.05.14-4.93,2.08-11.12,4.35s-11.26,4-11.31,3.87,4.93-2.09,11.13-4.36S506.45,385.16,506.49,385.29Z" style="fill:#263238"></path><path d="M498.55,382.62a61.63,61.63,0,0,1-11,3.09,31.56,31.56,0,0,1,5.44-1.79A31.06,31.06,0,0,1,498.55,382.62Z" style="fill:#263238"></path><path d="M534.19,356.3A166.65,166.65,0,0,1,515.9,361a89,89,0,0,1,9.08-2.62A86,86,0,0,1,534.19,356.3Z" style="fill:#263238"></path><path d="M589.66,318.2c.05.14-4.52,2.07-10.21,4.32s-10.35,4-10.4,3.83,4.52-2.07,10.21-4.32S589.61,318.07,589.66,318.2Z" style="fill:#263238"></path><path d="M597.28,322.28c0,.14-5.74,2.08-12.9,4.33s-13,4-13,3.82,5.73-2.07,12.89-4.32S597.23,322.15,597.28,322.28Z" style="fill:#263238"></path><rect x="102.8" y="307.93" width="48.93" height="32.32" style="fill:#ebebeb"></rect><path d="M151.73,340.25s0-.21,0-.6,0-1,0-1.72c0-1.52,0-3.71-.06-6.51,0-5.62-.06-13.67-.1-23.49l.2.21-48.92.05.25-.25h0V324.7c0,5.41,0,10.61,0,15.55l-.24-.24,35.19.12,10.1.06,2.69,0,.71,0h.24s-.07,0-.22,0h-.67l-2.65,0-10,.06-35.35.12h-.23v-.24c0-4.94,0-10.14,0-15.55v-8.26c0-1.39,0-2.8,0-4.22V308h0l.27-.27,48.92.06h.21v.2c-.05,9.87-.08,18-.11,23.62,0,2.78,0,4.95-.05,6.47,0,.71,0,1.27,0,1.67S151.73,340.25,151.73,340.25Z" style="fill:#263238"></path><rect x="71.54" y="274.02" width="76.65" height="33.91" style="fill:#f5f5f5"></rect><path d="M148.19,307.93s0-.21,0-.61,0-1,0-1.77c0-1.57,0-3.85-.05-6.77,0-5.87-.06-14.32-.1-24.76l.19.19-76.65.07h0l.26-.26c0,11.91,0,23.38,0,33.91l-.24-.24,54.95.11,15.93.07,4.27,0,1.11,0h.39l-.36,0h-1.08l-4.22,0-15.87.06-55.12.12h-.25v-.25c0-10.53,0-22,0-33.91v-.26h.27l76.65.07h.18V274c0,10.49-.07,19-.1,24.87,0,2.91,0,5.17,0,6.73,0,.75,0,1.32,0,1.74S148.19,307.93,148.19,307.93Z" style="fill:#263238"></path><path d="M594.93,257.49a3.8,3.8,0,0,1-.88.51l-2.46,1.21c-2.07,1-4.94,2.41-8.09,4s-6,3.08-8,4.16l-2.43,1.27a4.08,4.08,0,0,1-.92.41,3.42,3.42,0,0,1,.82-.58c.55-.35,1.35-.84,2.35-1.42,2-1.16,4.81-2.71,8-4.3s6.05-2.95,8.17-3.88c1.06-.46,1.92-.82,2.53-1.06A4.23,4.23,0,0,1,594.93,257.49Z" style="fill:#263238"></path><path d="M588,256.69a31,31,0,0,1-5.06,2.7,31.52,31.52,0,0,1-5.3,2.23A63.55,63.55,0,0,1,588,256.69Z" style="fill:#263238"></path><path d="M125.57,288.2c0,.14-4.94,2.09-11.13,4.36s-11.26,4-11.31,3.86,4.93-2.08,11.13-4.35S125.52,288.07,125.57,288.2Z" style="fill:#263238"></path><path d="M117.62,285.53a30.74,30.74,0,0,1-5.43,1.8,33.27,33.27,0,0,1-5.58,1.3,31.42,31.42,0,0,1,5.44-1.8A33.29,33.29,0,0,1,117.62,285.53Z" style="fill:#263238"></path><path d="M277.64,385.8c.05.14-4.93,2.09-11.13,4.36s-11.26,4-11.31,3.86,4.94-2.08,11.13-4.35S277.59,385.67,277.64,385.8Z" style="fill:#263238"></path><path d="M269.7,383.13a31.42,31.42,0,0,1-5.44,1.8,31.51,31.51,0,0,1-5.57,1.29,32.29,32.29,0,0,1,5.43-1.79A33.27,33.27,0,0,1,269.7,383.13Z" style="fill:#263238"></path><path d="M172.21,356.53c0,.14-4.93,2.09-11.13,4.36s-11.26,4-11.31,3.86,4.94-2.08,11.13-4.35S172.16,356.4,172.21,356.53Z" style="fill:#263238"></path><path d="M164.27,353.86a31.42,31.42,0,0,1-5.44,1.8,33.29,33.29,0,0,1-5.57,1.3,30.74,30.74,0,0,1,5.43-1.8A33.27,33.27,0,0,1,164.27,353.86Z" style="fill:#263238"></path><path d="M167,225c0,.14-4.93,2.09-11.12,4.36s-11.26,4-11.31,3.86,4.93-2.08,11.13-4.35S166.94,224.89,167,225Z" style="fill:#263238"></path><path d="M159.05,222.36a32.69,32.69,0,0,1-5.43,1.79,32.13,32.13,0,0,1-5.58,1.3,30.74,30.74,0,0,1,5.43-1.8A31.51,31.51,0,0,1,159.05,222.36Z" style="fill:#263238"></path><path d="M496.31,127.59c.05.13-4.93,2.08-11.12,4.35s-11.26,4-11.31,3.86,4.93-2.08,11.13-4.35S496.26,127.45,496.31,127.59Z" style="fill:#263238"></path><path d="M488.37,124.92a32.29,32.29,0,0,1-5.43,1.79,31.05,31.05,0,0,1-5.58,1.3,31,31,0,0,1,5.44-1.8A31.51,31.51,0,0,1,488.37,124.92Z" style="fill:#263238"></path><path d="M356.9,62c.05.13-4.93,2.08-11.13,4.35s-11.25,4-11.3,3.86,4.93-2.08,11.13-4.35S356.85,61.9,356.9,62Z" style="fill:#263238"></path><path d="M349,59.37a31.56,31.56,0,0,1-5.44,1.79,31.06,31.06,0,0,1-5.57,1.3,31.74,31.74,0,0,1,5.43-1.8A31.51,31.51,0,0,1,349,59.37Z" style="fill:#263238"></path><path d="M270.18,130.54c.05.14-4.93,2.09-11.13,4.36s-11.26,4-11.31,3.86,4.94-2.08,11.13-4.35S270.13,130.41,270.18,130.54Z" style="fill:#263238"></path><path d="M262.23,127.87a30.74,30.74,0,0,1-5.43,1.8,33.29,33.29,0,0,1-5.57,1.3,30.74,30.74,0,0,1,5.43-1.8A33.52,33.52,0,0,1,262.23,127.87Z" style="fill:#263238"></path></g><g id="freepik--Character--inject-228"><path d="M384,244.3l-18.22,20.33L343,284l-11-18,1.31-17.11,1.09-14.35s-18.83-4.15-17.88-23.18c.46-9.19,2.95-28,5.4-45.06a35.5,35.5,0,0,1,37.36-30.38l1.83.11c19.72,2.39,28.7,20.47,25.76,40.11L384,244.3" style="fill:#ffbe9d"></path><path d="M334.37,234.55s12,1.73,25.23-5.5c0,0-6.71,13.32-25.58,10.42Z" style="fill:#eb996e"></path><path d="M328.39,183.51a2.72,2.72,0,0,0,2.45,2.9,2.59,2.59,0,0,0,3-2.27,2.71,2.71,0,0,0-2.44-2.9A2.6,2.6,0,0,0,328.39,183.51Z" style="fill:#263238"></path><path d="M325.2,177.49c.31.38,2.46-1,5.39-.83s5,1.79,5.31,1.45c.16-.15-.14-.81-1-1.55a7.45,7.45,0,0,0-4.23-1.59,7.11,7.11,0,0,0-4.31,1.1C325.39,176.7,325,177.32,325.2,177.49Z" style="fill:#263238"></path><path d="M356.26,183.51a2.72,2.72,0,0,0,2.45,2.9,2.59,2.59,0,0,0,3-2.27,2.71,2.71,0,0,0-2.44-2.9A2.6,2.6,0,0,0,356.26,183.51Z" style="fill:#263238"></path><path d="M354.37,175.06c.27.41,2.56-.74,5.45-.24s4.75,2.32,5.12,2c.18-.13-.05-.82-.86-1.65a7.38,7.38,0,0,0-4-2.05,7.14,7.14,0,0,0-4.41.63C354.64,174.3,354.23,174.88,354.37,175.06Z" style="fill:#263238"></path><path d="M342.15,199.22c0-.17-1.77-.59-4.69-1.15-.74-.13-1.44-.32-1.54-.84a3.81,3.81,0,0,1,.64-2.18q1.23-2.64,2.56-5.54c3.57-7.9,6.21-14.41,5.89-14.55s-3.47,6.14-7,14l-2.48,5.58a4.38,4.38,0,0,0-.57,2.91,1.9,1.9,0,0,0,1.16,1.17,5.08,5.08,0,0,0,1.26.25C340.29,199.26,342.13,199.38,342.15,199.22Z" style="fill:#263238"></path><path d="M354.28,170.64c.54.65,3.17-.69,6.54-1.45s6.31-.81,6.5-1.64c.08-.39-.63-.93-1.94-1.28a11.64,11.64,0,0,0-9.93,2.35C354.43,169.52,354,170.32,354.28,170.64Z" style="fill:#D28C3D"></path><path d="M325.55,173c.48.78,3,.56,5.86,1.09s5.2,1.47,5.89.89c.31-.28.06-1-.88-1.83a9.59,9.59,0,0,0-4.55-2,9.4,9.4,0,0,0-4.92.4C325.8,172,325.34,172.59,325.55,173Z" style="fill:#D28C3D"></path><path d="M384.43,190.14c.33-.12,13.3-3,12.08,9.93s-14,9.06-14,8.69S384.43,190.14,384.43,190.14Z" style="fill:#ffbe9d"></path><path d="M387,204.22c.06,0,.21.18.57.39a2.3,2.3,0,0,0,1.69.2c1.42-.38,2.78-2.44,3.06-4.78a7.41,7.41,0,0,0-.32-3.29,2.64,2.64,0,0,0-1.54-1.9,1.15,1.15,0,0,0-1.39.49c-.21.35-.15.62-.22.63s-.26-.24-.11-.77a1.46,1.46,0,0,1,.59-.76,1.68,1.68,0,0,1,1.28-.21,3.17,3.17,0,0,1,2.17,2.23,7.6,7.6,0,0,1,.44,3.69c-.33,2.61-1.9,4.93-3.82,5.29a2.4,2.4,0,0,1-2-.54C386.94,204.54,386.9,204.24,387,204.22Z" style="fill:#eb996e"></path><path d="M321.19,144c.73-2.48,2.74-4.78,5.32-5a5.93,5.93,0,0,1,9.68-6.31c.09-4,5.16-6.86,8.62-4.91a5.14,5.14,0,0,1,9.78-2.2c3-4.5,10.66-4.64,13.83-.26a11.3,11.3,0,0,1,13.33,6.91,10.77,10.77,0,0,1,9,8,7.86,7.86,0,0,1,5,12.63c3.19,1.79,3.55,7,.62,9.25a5.71,5.71,0,0,1-.79,10.3c1.9.36,2.51,2.94,1.82,4.74s-2.16,3.2-3,4.93c-.71,1.42-1,3-1.62,4.49a10.32,10.32,0,0,1-6.51,5.74c.11.14.21.28.32.41.23,1.69-2.16,2.69-3.69,1.93s-2.31-2.43-3.13-3.92a18.64,18.64,0,0,1-2.4-5.31c-.36-1.92.32-4.21,2.1-5-2.2-.88-3.51-3.26-3.79-5.62a20,20,0,0,1,.85-7q1.25-5.09,2.48-10.19a13,13,0,0,1-10.76-8.07,7.45,7.45,0,0,1-10.63-3.31,9.72,9.72,0,0,1-12.16,5.25c.35,2.73-4.63,4.92-7.32,5.47s-5.9-1.53-5.9-1.53-4.71,2.41-7.15,1.26-5.48-4.47-3.71-6.94A12,12,0,0,1,321.19,144Z" style="fill:#D28C3D"></path><path d="M317.39,201a4.08,4.08,0,0,1,5.95,2.18,5.07,5.07,0,0,1,8.94,1.86c1-2.74,5.33-3.33,7-.94a3.28,3.28,0,0,1,3.58-1.3,3.22,3.22,0,0,1,5.35-2.68,5.23,5.23,0,0,1,7.78-1,2.91,2.91,0,0,1,5.6.39,4.71,4.71,0,0,1,5.48-1.23,3.15,3.15,0,0,1,4-2.76c-.4-1.62,2-2.26,3.23-3.37.56-.5.92-1.19,1.52-1.64s1.61-.52,2,.14a2.69,2.69,0,0,1,5.12-1.59,8.08,8.08,0,0,1,.36,2.31c.28,2.51,1.58,5.52-.29,7.21-.33.3-.75.54-.9,1-.26.72.43,1.43.45,2.19s-.8,1.53-1.19,2.32c-.57,1.18-.13,2.57-.08,3.87s-.74,2.94-2,2.77a4.59,4.59,0,0,1-1.63,5.63,4.47,4.47,0,0,1-2.81,5.78,2.29,2.29,0,0,1,.06,3,6.65,6.65,0,0,1-2.73,1.84,1.91,1.91,0,0,1,.37,2.69,4.41,4.41,0,0,1-2.61,1.48,1.9,1.9,0,0,0-1.15.56c-.49.66.1,1.6-.05,2.41-.24,1.23-2,1.53-2.56,2.65s.06,2.45-.78,3.19c-.55.48-1.38.36-2.07.58-1.24.39-1.83,1.74-2.64,2.75-1.53,1.9-4,2.67-6.42,3.19-1.22.26-2.44.48-3.67.67-2.45.37-4.92.59-7.38.8-1.23.11-2.73.07-3.34-1a4.24,4.24,0,0,1-6.73-1c-2.21.51-4.47-.49-6.53-1.47l-2.13-1c-2.11-1-4.46-2.29-5-4.57a4.73,4.73,0,0,1-3.18-6.59c-1,.25-1.91-.77-2-1.78a9.15,9.15,0,0,1,.49-3c.88-4.06-1.15-8.28-.45-12.37.49-2.86,2.3-5.65,1.57-8.46a5.08,5.08,0,0,1-.34-1.75c.06-.59.63-1.19,1.19-1a2.66,2.66,0,0,1,2.8-3.43" style="fill:#D28C3D"></path><g style="opacity:0.30000000000000004"><path d="M368.44,224.77a21.67,21.67,0,0,0,.74-13.5,5.68,5.68,0,0,1,.74,1.91,16.32,16.32,0,0,1,.49,4.93,15.93,15.93,0,0,1-1,4.84A5.72,5.72,0,0,1,368.44,224.77Z"></path></g><g style="opacity:0.30000000000000004"><path d="M371.59,220.28c-.07-.07.41-.5.77-1.42a9.38,9.38,0,0,0,.45-3.83c-.13-3.09-.9-5.5-.76-5.55a12.77,12.77,0,0,1,1.27,5.52,8.17,8.17,0,0,1-.63,4C372.21,220,371.61,220.32,371.59,220.28Z"></path></g><g style="opacity:0.30000000000000004"><path d="M337.77,238.73a5.89,5.89,0,0,1-1.32-1.79,14.06,14.06,0,0,1-1.66-5.1,14.24,14.24,0,0,1,.37-5.35,6,6,0,0,1,.85-2.06c.08,0-.23.82-.5,2.14a16.76,16.76,0,0,0-.21,5.21,16.46,16.46,0,0,0,1.47,5C337.35,238,337.84,238.68,337.77,238.73Z"></path></g><g style="opacity:0.30000000000000004"><path d="M341.12,238.64a11.11,11.11,0,0,1-2.59-10.35,24.57,24.57,0,0,0,.46,5.38A24.46,24.46,0,0,0,341.12,238.64Z"></path></g><g style="opacity:0.30000000000000004"><path d="M347,237.68a3.1,3.1,0,0,1-1.33-.7,9,9,0,0,1-3.53-6.14,3.06,3.06,0,0,1,.06-1.5,15.76,15.76,0,0,0,1.52,4.68A15.58,15.58,0,0,0,347,237.68Z"></path></g><path d="M340.6,208.46c2.22-1.09,3.46-1.87,5.68-3,1-.51,2.27-1,3.29-.48a2.63,2.63,0,0,1,1.22,2,5.3,5.3,0,0,1-.92,3.61,11.18,11.18,0,0,1-2.68,2.68c-1.21.9-2.71,1.73-4.15,1.29a3.66,3.66,0,0,1-2.23-2.44,10.81,10.81,0,0,1-.33-3.41" style="fill:#fff"></path><path d="M352,204.17c-.15-.77-.95-1.21-1.66-1.53a6.56,6.56,0,0,0-3.82-.8,11,11,0,0,0-3.11,1.57,9.12,9.12,0,0,1-5.25,1.1l-.31,0a5.22,5.22,0,0,0-.27,3,2.57,2.57,0,0,0,2,2,1.71,1.71,0,0,0,1.91-1.79,1.9,1.9,0,0,0,3.47-.36,2.3,2.3,0,0,0,3.32-1.48,4.41,4.41,0,0,0,2.38.16A1.7,1.7,0,0,0,352,204.17Z" style="fill:#D28C3D"></path><path d="M198.69,163.31a1.14,1.14,0,0,1-.2.19c-.18.15-.38.31-.59.5-.52.44-1.28,1.06-2.16,1.89a18.88,18.88,0,0,0-2.79,3.18,10.33,10.33,0,0,0-1.8,4.79,36.06,36.06,0,0,0,0,5.2,19.74,19.74,0,0,1-.19,4.27,9,9,0,0,1-.92,2.73,4.9,4.9,0,0,1-.59.87s.21-.31.52-.91a9.13,9.13,0,0,0,.84-2.72,20.24,20.24,0,0,0,.15-4.23,33.71,33.71,0,0,1,0-5.23,10.42,10.42,0,0,1,1.84-4.88,18.24,18.24,0,0,1,2.85-3.18c.9-.82,1.67-1.43,2.2-1.84l.63-.48Z" style="fill:#263238"></path><path d="M207.84,155.2a1.29,1.29,0,0,1-.17.2l-.5.52a23.78,23.78,0,0,0-1.76,2,26.25,26.25,0,0,0-2.25,3.27,31.31,31.31,0,0,0-2.1,4.38,30.92,30.92,0,0,0-1.32,4.68,28,28,0,0,0-.48,3.94,26.86,26.86,0,0,0,0,2.69c0,.26,0,.5,0,.73a1,1,0,0,1,0,.25,20.89,20.89,0,0,1-.16-3.67,26.36,26.36,0,0,1,.44-4,27.37,27.37,0,0,1,3.44-9.13,27.23,27.23,0,0,1,2.3-3.27A21.08,21.08,0,0,1,207.84,155.2Z" style="fill:#263238"></path><path d="M270.18,278.15s-14.52-21.52-20.26-26.92-41.84-54-41.84-54l-18.89,16.19s26.65,54.66,33.4,68.16,18.56,29,22.94,33.4,32.06,7.43,32.06,7.43S272,287.24,270.18,278.15Z" style="fill:#ffbe9d"></path><path d="M157.6,199.54l87.38-77,6.4,7.63-85.66,78.76S158.34,206.68,157.6,199.54Z" style="fill:#455a64"></path><path d="M167.52,207.18a2.54,2.54,0,0,1-.11-.53c-.08-.47-.17-1-.25-1.46-.22-1.23-.56-2.92-1-4.77s-1-3.48-1.41-4.66l-.49-1.4a1.93,1.93,0,0,1-.16-.52,4.13,4.13,0,0,1,.23.49c.15.32.34.79.56,1.38a47.36,47.36,0,0,1,1.47,4.66,46.51,46.51,0,0,1,1,4.79c.09.62.16,1.13.19,1.47A3.74,3.74,0,0,1,167.52,207.18Z" style="fill:#263238"></path><path d="M181.76,194.08a8,8,0,0,1-2.11,1.4,10.47,10.47,0,0,1-11.56-1.58,8.4,8.4,0,0,1-1.66-1.93,5.29,5.29,0,0,1,.45.51,10,10,0,0,0,1.31,1.3,10.85,10.85,0,0,0,13,.67A4.79,4.79,0,0,1,181.76,194.08Z" style="fill:#263238"></path><path d="M184.32,176.37a6.72,6.72,0,0,1,.35.94,9.44,9.44,0,0,1,.4,2.69,10.54,10.54,0,0,1-.74,4,9.75,9.75,0,0,1-7.29,6.17,10.62,10.62,0,0,1-4,.06,9.35,9.35,0,0,1-2.59-.83,6.85,6.85,0,0,1-.87-.5,11.74,11.74,0,0,0,3.48,1.19,10.82,10.82,0,0,0,4-.11,9.65,9.65,0,0,0,7.15-6.05,10.65,10.65,0,0,0,.77-3.91A11.46,11.46,0,0,0,184.32,176.37Z" style="fill:#263238"></path><path d="M230.81,135.18s.09.24.24.71a13.17,13.17,0,0,1,.44,2.1,16.56,16.56,0,0,1-1,7.78,21.92,21.92,0,0,1-2.5,4.84,30,30,0,0,1-4.09,4.73,54.09,54.09,0,0,1-5.33,4.41c-1,.71-1.95,1.42-3,2.14a10.61,10.61,0,0,1-3.28,1.87,2.92,2.92,0,0,1-1.89-.15,2.32,2.32,0,0,1-1.21-1.43,5.62,5.62,0,0,1,.29-3.58,14.71,14.71,0,0,1,3.66-5.72,15.36,15.36,0,0,1,10.44-4.46h.11l0,.1a11.75,11.75,0,0,1-5,6.25,11,11,0,0,1-2,1,7.64,7.64,0,0,1-.74.23l.72-.27a11.15,11.15,0,0,0,2-1,11.65,11.65,0,0,0,4.9-6.23l.08.1A15.28,15.28,0,0,0,213.31,153a14.68,14.68,0,0,0-3.61,5.65,5.49,5.49,0,0,0-.28,3.46,2.12,2.12,0,0,0,1.1,1.3,2.71,2.71,0,0,0,1.76.13,10.59,10.59,0,0,0,3.21-1.83c1-.72,2-1.42,3-2.13a55.25,55.25,0,0,0,5.32-4.39,30.17,30.17,0,0,0,4.08-4.69,21.67,21.67,0,0,0,2.5-4.8,16.69,16.69,0,0,0,1.06-7.71,13.11,13.11,0,0,0-.4-2.1Z" style="fill:#263238"></path><path d="M238.86,128.1a21.12,21.12,0,0,0-.82,2.38,35.47,35.47,0,0,0-.83,6c-.1,1.19-.23,2.32-.4,3.35a14.7,14.7,0,0,1-.71,2.66,8.67,8.67,0,0,1-1.18,2.24,18.5,18.5,0,0,0,1-2.29,16,16,0,0,0,.66-2.65c.16-1,.28-2.14.38-3.33a31.44,31.44,0,0,1,.9-6.06A9.61,9.61,0,0,1,238.86,128.1Z" style="fill:#263238"></path><path d="M246.37,135a1.47,1.47,0,0,1-.27-.35,9.86,9.86,0,0,1-.66-1,16.8,16.8,0,0,1-1.58-3.73,17.21,17.21,0,0,1-.66-4c0-.52,0-.94,0-1.23a1.66,1.66,0,0,1,.05-.45s0,.64.1,1.67a19.25,19.25,0,0,0,2.22,7.66C246.05,134.43,246.4,135,246.37,135Z" style="fill:#263238"></path><polygon points="233.39 110.01 265.49 145.65 269.94 145.65 288.48 129.13 288.48 123.95 256.25 90.06 251.47 89.13 233.39 105.27 233.39 110.01" style="fill:#e0e0e0"></polygon><path d="M233.39,110a1,1,0,0,1,0-.3c0-.23,0-.52,0-.9,0-.83,0-2,0-3.54v0l0,0,18-16.22.08-.06.09,0,4.79.92h.07l.05,0,32.26,33.85.07.08v5.39l-.08.08L270.1,145.84l-.07.06h-4.65l-.07-.08L242.2,120l-6.53-7.35-1.72-2-.43-.5a1.1,1.1,0,0,1-.13-.18l.17.16.47.49,1.78,1.93,6.65,7.28,23.2,25.63-.17-.08h4.45l-.16.06,18.53-16.54-.09.2V124l.07.18L256.1,90.21l.11.06-4.78-.94.17,0-18.15,16,0-.06c0,1.51,0,2.69,0,3.51,0,.39,0,.69,0,.91S233.39,110,233.39,110Z" style="fill:#263238"></path><path d="M256.25,89.74a4.8,4.8,0,0,1-.78.92c-.53.56-1.33,1.35-2.33,2.31-2,1.91-4.9,4.41-8.15,7.11s-6.17,5.14-8.24,7l-2.43,2.18a6.36,6.36,0,0,1-.93.77,4.62,4.62,0,0,1,.78-.91c.53-.57,1.33-1.36,2.33-2.31,2-1.92,4.9-4.42,8.15-7.11s6.17-5.15,8.24-7l2.43-2.18A6.36,6.36,0,0,1,256.25,89.74Z" style="fill:#263238"></path><path d="M287.75,124.36a5.82,5.82,0,0,1-.87.88l-2.48,2.25c-2.1,1.89-5,4.51-8.15,7.45s-6,5.65-8,7.61l-2.42,2.31a5.24,5.24,0,0,1-.93.81,6.1,6.1,0,0,1,.79-.95c.53-.59,1.32-1.42,2.3-2.43,2-2,4.75-4.78,7.91-7.73s6.1-5.52,8.26-7.35c1.08-.91,2-1.64,2.59-2.12A6.23,6.23,0,0,1,287.75,124.36Z" style="fill:#263238"></path><path d="M267.56,137.17c-.14,0-2.36-7.85-5-17.62s-4.61-17.72-4.47-17.76,2.36,7.86,5,17.63S267.7,137.13,267.56,137.17Z" style="fill:#fff"></path><path d="M263.38,133.85c-.14,0-2.08-6.52-4.32-14.64s-4-14.75-3.82-14.79,2.07,6.52,4.32,14.65S263.52,133.81,263.38,133.85Z" style="fill:#fff"></path><path d="M189.13,154.66a5.57,5.57,0,0,0-4,6.68c-1.69-.94-3.93.09-5,1.71a11.65,11.65,0,0,0-1.39,5.57,4.74,4.74,0,0,0-5.76,4.25,5.11,5.11,0,0,1-.19,2.28c-.49,1-1.77,1.25-2.61,2a3.61,3.61,0,0,0-.89,3.59,8.14,8.14,0,0,0,2,3.29,23.26,23.26,0,0,0,7.18,5.34,5,5,0,0,0,3.82.56c1.23-.48,1.89-2.35.85-3.16a4,4,0,0,0,5.61-5.79c1.31,1.76,4.42,1.07,5.44-.87s.36-4.39-.93-6.16c1.22,1.32,3.66.27,4.26-1.42s0-3.56-.69-5.23c-1.8-4.46-5.22-8.5-7.72-12.62" style="fill:#ffbe9d"></path><path d="M183.47,187.11a8.5,8.5,0,0,1-1.8-1.25,48.71,48.71,0,0,1-3.92-3.56c-1.45-1.47-2.7-2.86-3.58-3.88a9.76,9.76,0,0,1-1.35-1.73,69.47,69.47,0,0,1,5.3,5.24c1.45,1.46,2.79,2.74,3.79,3.65A10.38,10.38,0,0,1,183.47,187.11Z" style="fill:#eb996e"></path><path d="M178.49,168.52a21.63,21.63,0,0,1,1.3,2.17,36.05,36.05,0,0,0,3.51,4.94,54.28,54.28,0,0,0,6.27,5.88,9,9,0,0,1-2.17-1.34,27.53,27.53,0,0,1-7.94-9.3A8.75,8.75,0,0,1,178.49,168.52Z" style="fill:#eb996e"></path><path d="M193.65,174.31a7.51,7.51,0,0,1-1.94-1.39,21.38,21.38,0,0,1-3.78-4.37,20.86,20.86,0,0,1-2.48-5.21A7.67,7.67,0,0,1,185,161a38.09,38.09,0,0,0,3.42,7.26A37.44,37.44,0,0,0,193.65,174.31Z" style="fill:#eb996e"></path><path d="M208.08,197.25s3.23-21.21,2.42-23.46-7-17.23-7-17.23l-15.81-1.9s-2,2.89,1.51,5.3a16.12,16.12,0,0,0,7,2.74l1.61,6.59s-11.67,9.18-10.38,19.63l-11.62,10.74,13.38,13.78Z" style="fill:#ffbe9d"></path><path d="M199.11,168.57c0,.08-1.16.8-2.87,2.28a28.33,28.33,0,0,0-2.79,2.8,29.69,29.69,0,0,0-2.79,3.94,26.92,26.92,0,0,0-2,4.39,22.75,22.75,0,0,0-1,3.83c-.34,2.23-.25,3.64-.35,3.64a3.15,3.15,0,0,1-.12-1,8.85,8.85,0,0,1,0-1.17c0-.45,0-1,.12-1.54a19.61,19.61,0,0,1,.87-3.93,24.45,24.45,0,0,1,2-4.5,27.14,27.14,0,0,1,2.88-4,24.37,24.37,0,0,1,2.91-2.78c.44-.37.87-.66,1.24-.92a9.93,9.93,0,0,1,1-.62A3.73,3.73,0,0,1,199.11,168.57Z" style="fill:#eb996e"></path><path d="M197.81,169.29a7.54,7.54,0,0,1-.58-1.73c-.31-1.1-.73-2.67-1.19-4.51l.21.19a23.31,23.31,0,0,1-3.61-1.28,27.8,27.8,0,0,1-3.63-1.73,4.34,4.34,0,0,1-2-2.65,3.64,3.64,0,0,1,.25-2.23c.21-.49.41-.71.44-.69a6.89,6.89,0,0,1-.25.76,3.77,3.77,0,0,0-.08,2.08,4,4,0,0,0,1.92,2.32,30.79,30.79,0,0,0,3.57,1.66,26.19,26.19,0,0,0,3.46,1.27l.17.05,0,.14c.43,1.85.78,3.43,1,4.55A8.59,8.59,0,0,1,197.81,169.29Z" style="fill:#eb996e"></path><path d="M206.5,200.1a7.58,7.58,0,0,1-1.91.74c-1.2.38-2.88.84-4.76,1.26s-3.6.71-4.85.88a7.65,7.65,0,0,1-2,.14c0-.15,3-.69,6.78-1.53S206.46,200,206.5,200.1Z" style="fill:#eb996e"></path><path d="M471.6,301.23S457.36,282.77,454,279c-2.94-3.32-15.67-17.28-20-20.87s-3.25-4.45-7.18-4.79-19.51-2.39-22.41,1.2-12.66,22.41-12.66,37.12,14.71,44.65,20.52,49.44c0,0,21.6-4.86,28.66-2.87S471.6,301.23,471.6,301.23Z" style="fill:#455a64"></path><path d="M429.33,253.83l-38.69-10.51-6-3.29c-13.92,7.56-40.7,24.87-51.56,11.88l-4.38,3.14s-29.78,48.63-30.16,56.54c-.21,4.48-2.18,69.56-2.92,93.58,0,0,6.58.13,6.23-.21l125.1.21,3.4-66.61Z" style="fill:#455a64"></path><path d="M431.88,335.56a5.07,5.07,0,0,1-1-.6c-.65-.42-1.56-1-2.66-1.87a78.82,78.82,0,0,1-8.14-7A76.46,76.46,0,0,1,413,318c-.84-1.1-1.48-2-1.9-2.65a5.15,5.15,0,0,1-.62-1,4.89,4.89,0,0,1,.78.91c.47.6,1.16,1.47,2,2.53a97.28,97.28,0,0,0,15.17,15c1.07.86,1.95,1.54,2.56,2A5.14,5.14,0,0,1,431.88,335.56Z" style="fill:#263238"></path><path d="M328.69,255.05s-15.62,3.23-17.22,3.72c-5.78,1.73-41.84,17.54-41.84,17.54s-7.68,31.5,2.53,45.43A129.51,129.51,0,0,0,281.52,333l44-10.56Z" style="fill:#455a64"></path><path d="M389.88,242.9a3.26,3.26,0,0,1-.54.4l-1.61,1.07-6,3.83c-5,3.23-12,7.84-20.71,10.93a41.6,41.6,0,0,1-12.64,2.68A28.82,28.82,0,0,1,338,260.29a21.54,21.54,0,0,1-6.23-3.43,12.35,12.35,0,0,1-1.44-1.29c-.31-.31-.47-.48-.45-.5a5.22,5.22,0,0,1,.53.42,16.41,16.41,0,0,0,1.49,1.21,22.5,22.5,0,0,0,6.22,3.24,29.17,29.17,0,0,0,10.3,1.39,42.08,42.08,0,0,0,12.48-2.69c8.62-3.06,15.62-7.59,20.69-10.75l6.07-3.69,1.66-1A3.39,3.39,0,0,1,389.88,242.9Z" style="fill:#263238"></path><path d="M407.08,302.7a3.52,3.52,0,0,1-.14-.53c-.09-.41-.19-.92-.32-1.55a19.42,19.42,0,0,1-.38-2.47c-.05-.49-.1-1-.15-1.55a12.27,12.27,0,0,1-.09-1.75,34.36,34.36,0,0,1,.08-4c.06-.72.11-1.47.19-2.24s.24-1.54.37-2.34a45.91,45.91,0,0,1,3-10.11,54,54,0,0,1,5.12-9.23,51.65,51.65,0,0,1,5.54-6.6c.43-.43.83-.86,1.24-1.23l1.17-1,1-.9c.32-.26.63-.48.9-.69l1.27-.94a2.05,2.05,0,0,1,.46-.29,2.31,2.31,0,0,1-.4.38l-1.2,1c-.26.22-.56.45-.87.72l-1,.92-1.14,1.06c-.4.38-.78.81-1.21,1.25a53.57,53.57,0,0,0-5.4,6.62,54.91,54.91,0,0,0-5,9.16,47.8,47.8,0,0,0-3,10c-.13.8-.26,1.57-.39,2.32s-.14,1.5-.21,2.21c-.18,1.42-.11,2.76-.15,4a14,14,0,0,0,.06,1.74c0,.54.08,1.06.11,1.54a21.93,21.93,0,0,0,.29,2.47l.22,1.56A1.77,1.77,0,0,1,407.08,302.7Z" style="fill:#263238"></path><g style="opacity:0.30000000000000004"><path d="M297.52,329.15l2.28-47.46C293.16,295.88,292,314.5,297.52,329.15Z"></path></g><g style="opacity:0.30000000000000004"><path d="M314.66,403.47a88,88,0,0,0,81.39-46.62C370.4,376,344.71,392.66,314.66,403.47Z"></path></g><path d="M399.75,352.93l-.19.19-.57.54-2.26,2c-1,.88-2.19,1.95-3.64,3.13s-3,2.59-4.92,4-3.88,3.06-6.12,4.69-4.64,3.36-7.19,5.15c-5.15,3.51-10.93,7.21-17.16,10.81s-12.33,6.73-17.94,9.44c-2.82,1.33-5.49,2.61-8,3.7s-4.92,2.12-7.1,3-4.17,1.66-5.91,2.34-3.26,1.23-4.5,1.66l-2.87,1-.75.24a.77.77,0,0,1-.26.07,1,1,0,0,1,.24-.12l.74-.29,2.82-1.1c1.24-.46,2.74-1,4.47-1.74s3.72-1.47,5.88-2.41,4.55-1.91,7.06-3.07,5.2-2.39,8-3.73c5.59-2.73,11.66-5.89,17.89-9.46s12-7.27,17.15-10.75c2.55-1.78,5-3.44,7.21-5.11s4.29-3.18,6.14-4.63,3.51-2.79,5-4,2.69-2.21,3.69-3.07l2.32-1.95.61-.5C399.67,353,399.74,352.92,399.75,352.93Z" style="fill:#263238"></path><g style="opacity:0.30000000000000004"><path d="M405.66,297.37c.11.13-.09.53-.69,1.12a8.24,8.24,0,0,1-3.2,1.78c-3.09,1.05-8,.73-13.06-1.54-2.5-1.07-5.06-2.44-7.77-3.55a23.75,23.75,0,0,0-4.15-1.3,14.29,14.29,0,0,0-4.34-.19,23,23,0,0,0-9.13,3.44c-3.1,1.82-6.07,4.17-9.5,6.54a38.66,38.66,0,0,1-11.17,5.6,19.72,19.72,0,0,1-6.3.75,18.2,18.2,0,0,1-6-1.33,36.06,36.06,0,0,1-8.89-5.56c-2.45-2-4.59-3.76-6.67-5.12a19.75,19.75,0,0,0-5.89-2.77,14.39,14.39,0,0,0-4.86-.44c-2.7.25-4.09,1.2-4.34.86-.1-.13.1-.54.72-1.11a8.4,8.4,0,0,1,3.21-1.73,13.91,13.91,0,0,1,5.8-.44,20.67,20.67,0,0,1,7.24,2.46,74.91,74.91,0,0,1,7.38,4.83,34.26,34.26,0,0,0,8,4.54,14.18,14.18,0,0,0,9.16.16,35.71,35.71,0,0,0,9.63-5c3.18-2.18,6.4-4.68,9.88-6.64A26.65,26.65,0,0,1,372,288.91a18.34,18.34,0,0,1,5.77.5,27.11,27.11,0,0,1,4.9,1.82c2.94,1.43,5.37,3,7.61,4.18,4.36,2.43,8.37,3.18,11,2.88S405.4,297,405.66,297.37Z" style="fill:#fff"></path></g><g style="opacity:0.30000000000000004"><path d="M455.87,281c.32.1.46,1,0,2.44a12.2,12.2,0,0,1-3.66,5.26,20.45,20.45,0,0,1-8.4,4.32,42,42,0,0,1-11.07,1l-5.44-.16-2.5,0c-.78,0-1.55,0-2.3.08a39.16,39.16,0,0,0-7.94,1.37c-4.46,1.2-6.77,3-7.34,2.5-.25-.22,0-1.07,1-2.22a16.14,16.14,0,0,1,5-3.71,29.25,29.25,0,0,1,8.77-2.7c.86-.13,1.75-.23,2.67-.29s1.78-.08,2.69-.09c1.81,0,3.66,0,5.5,0a53.47,53.47,0,0,0,9.94-.47,21.32,21.32,0,0,0,7.25-2.59,17.92,17.92,0,0,0,4.09-3.29C455,281.48,455.51,280.86,455.87,281Z" style="fill:#fff"></path></g><g style="opacity:0.30000000000000004"><path d="M294.6,293.92c-.34.61-2.06.44-4.32-.92a20.69,20.69,0,0,1-6.88-7.28,23.2,23.2,0,0,1-2.19-5.11,17.32,17.32,0,0,1-.7-4.52c0-2.64.73-4.2,1.42-4.18s1.33,1.43,2.2,3.49a64.65,64.65,0,0,0,3.77,7.7,73,73,0,0,0,4.82,7.14C294.05,292.05,295,293.28,294.6,293.92Z" style="fill:#fff"></path></g><path d="M395.8,321.92a5,5,0,0,0-4,4.33,3.07,3.07,0,0,0,1.5,3.1c3.39,2.07,6.79,3.39,11.31,1.7a66.44,66.44,0,0,1,9.44-2.64s7.93-.76,13,.56,13,7,15.46,6.79,19.05-1.7,21.69-4.15,7.17-10.56,1.51-15.09-15.47-8.11-16.41-8.68-10.75-1.32-10.75-1.32l-8.45-2.07a95.73,95.73,0,0,1-6.08,7.73c-1.88,1.89-7.92,5.66-10.75,6.23Z" style="fill:#ffbe9d"></path><path d="M449.34,303.07s.32-.18.87-.44a26.76,26.76,0,0,1,7.59-2.45c4.1-.51,6.84-.85,11.12,0s13.51,8.56,15.73,12.66,3.94,21,1.71,26.18-4.79,13.51-10.77,13.85-28.06-.79-30.28-7.75-12.32-14-12.32-14l16.35-28.08" style="fill:#ffbe9d"></path><path d="M412.33,303.88s7.92-4.71,11.13-5.09a35.48,35.48,0,0,1,6.79,0l7.54,5.09s4.72-1.51,8.11-.94a24.68,24.68,0,0,1,7,2.64s8.87,2.45,10.76,3.4,6.6,5.65,6.6,5.65l2.26,8.3v19.81s-4,2.08-5.66.76-3.58-4.91-3.58-6.42-.19-8.67-.19-8.67-1.13-3.4-2.45-3.78a8.48,8.48,0,0,0-3.21,0s-9.81,19.62-11.13,20.75a4.53,4.53,0,0,1-5.28,0c-1.51-1.13-3-2.26-2.45-4s7.92-22.26,7.92-22.26l.94-5.28-5,4.15s-6.14,18.3-8.21,19.05-4.53,1.13-6,0-2.83-1.32-2.07-4.34,4.53-17.92,4.71-19.24a10,10,0,0,1,1.89-3.39L425.34,308s-6.6,3.21-9.24,3.4-6.79.38-6.22-3.4S412.33,303.88,412.33,303.88Z" style="fill:#ffbe9d"></path><path d="M412.33,303.88a2.06,2.06,0,0,0-.36.17,3.23,3.23,0,0,0-.85.77,5.49,5.49,0,0,0-.83,1.7,6.92,6.92,0,0,0-.36,2.56,2.27,2.27,0,0,0,.64,1.36,3.28,3.28,0,0,0,1.5.75,12.88,12.88,0,0,0,4,.13,18.29,18.29,0,0,0,4.43-1.29q2.31-.91,4.82-2.13l.05,0h.05l7.36,2.06.24.07-.15.19a13.69,13.69,0,0,0-1.5,2.29,4.5,4.5,0,0,0-.4,1.32c-.11.47-.21.95-.32,1.43-.46,1.91-.93,3.89-1.43,5.94s-1,4.15-1.56,6.32c-.27,1.09-.55,2.19-.83,3.31l-.42,1.68a7.19,7.19,0,0,0-.28,1.69,2.05,2.05,0,0,0,.52,1.49,11.58,11.58,0,0,0,1.42,1,4.34,4.34,0,0,0,3.33.82,10.22,10.22,0,0,0,1.8-.35c.3-.08.59-.18.88-.28a1.54,1.54,0,0,0,.62-.53,19.72,19.72,0,0,0,1.8-3.34c2.11-4.72,3.92-9.81,5.73-15.09l0-.06.05-.05,5-4.15.51-.43-.11.66c-.3,1.65-.62,3.46-.94,5.29v0c-2.12,5.94-4.32,12.14-6.59,18.52l-.85,2.4-.43,1.21a2,2,0,0,0-.11,1.12,3.74,3.74,0,0,0,1.42,1.89c.32.27.67.53,1,.79a3.93,3.93,0,0,0,1.08.55,4.6,4.6,0,0,0,2.44.14,3.73,3.73,0,0,0,1.13-.46,1.47,1.47,0,0,0,.43-.39,2.79,2.79,0,0,0,.36-.5c.93-1.46,1.77-3,2.62-4.58,2.78-5.18,5.41-10.35,8-15.42l.06-.12.12,0a10.6,10.6,0,0,1,2-.17,6,6,0,0,1,1,.11,1.81,1.81,0,0,1,1,.5,9.57,9.57,0,0,1,1.92,3.5l0,0v0q.06,2.87.12,5.67l.06,2.81a6.22,6.22,0,0,0,.71,2.55,15.13,15.13,0,0,0,1.37,2.33,10.57,10.57,0,0,0,.85,1,2.82,2.82,0,0,0,1,.74,4.49,4.49,0,0,0,2.51-.07,12.29,12.29,0,0,0,2.45-.94l-.13.22q0-10.35,0-19.81V323q-1.15-4.25-2.25-8.3l.05.1c-1.27-1.26-2.55-2.47-3.85-3.61a24.74,24.74,0,0,0-2-1.59,8.42,8.42,0,0,0-2.23-1c-3.15-1.08-6.23-1.95-9.18-2.79h0l0,0a21.22,21.22,0,0,0-7.7-2.72,21.61,21.61,0,0,0-7.25,1l-.07,0-.06,0-7.53-5.11.05,0a36.22,36.22,0,0,0-4.34-.17,13.44,13.44,0,0,0-3.75.45,39.24,39.24,0,0,0-5.47,2.37c-1.44.73-2.52,1.32-3.24,1.72l-.82.45-.28.14s.35-.23,1.06-.65,1.78-1,3.22-1.79a38.79,38.79,0,0,1,5.47-2.43,13.88,13.88,0,0,1,3.81-.5,38.84,38.84,0,0,1,4.37.15h0l0,0,7.56,5.07-.13,0a21.84,21.84,0,0,1,7.37-1.05,21.38,21.38,0,0,1,7.86,2.74l-.05,0c3,.83,6,1.69,9.21,2.77a8.83,8.83,0,0,1,2.34,1.08c.71.49,1.37,1.05,2,1.61,1.32,1.14,2.6,2.36,3.88,3.62l0,0,0,.06c.74,2.69,1.5,5.46,2.27,8.29v.06q0,9.45,0,19.81v.15l-.13.07a12.88,12.88,0,0,1-2.55,1,7,7,0,0,1-1.38.24,2.88,2.88,0,0,1-2.61-1,10.21,10.21,0,0,1-.89-1.08,14.52,14.52,0,0,1-1.42-2.41,6.77,6.77,0,0,1-.77-2.76l-.06-2.8c0-1.87-.08-3.76-.13-5.67l0,.08A9.45,9.45,0,0,0,461,325.2a2.33,2.33,0,0,0-1.67-.47,8.8,8.8,0,0,0-1.91.16l.18-.14c-2.55,5.08-5.18,10.25-8,15.44-.86,1.56-1.69,3.11-2.64,4.62a3.13,3.13,0,0,1-1,1,4.08,4.08,0,0,1-1.3.52,5.09,5.09,0,0,1-2.71-.15,4.1,4.1,0,0,1-1.23-.63c-.35-.26-.69-.52-1-.8a4.19,4.19,0,0,1-1.6-2.18,2.54,2.54,0,0,1,.13-1.4l.43-1.21.85-2.4,6.61-18.52v0c.32-1.83.65-3.64.94-5.28l.4.23-5,4.15.07-.11c-1.82,5.28-3.64,10.37-5.77,15.12a20.6,20.6,0,0,1-1.86,3.42,1.83,1.83,0,0,1-.82.67c-.3.11-.6.21-.91.29a12,12,0,0,1-1.88.37,6.07,6.07,0,0,1-1.9-.09,4.07,4.07,0,0,1-1.71-.82,11.32,11.32,0,0,1-1.48-1.1,2.45,2.45,0,0,1-.64-1.79,8,8,0,0,1,.3-1.78c.14-.56.29-1.12.43-1.68l.83-3.3q.82-3.26,1.59-6.32t1.45-5.93c.11-.47.22-.95.32-1.41a4.72,4.72,0,0,1,.44-1.41,14,14,0,0,1,1.54-2.35l.09.26-7.36-2.09h.11c-1.69.8-3.31,1.51-4.86,2.11a18.2,18.2,0,0,1-4.5,1.27,12.93,12.93,0,0,1-4-.17,3.36,3.36,0,0,1-1.58-.81,2.34,2.34,0,0,1-.67-1.46,7.11,7.11,0,0,1,.4-2.62,5.66,5.66,0,0,1,.88-1.71,2.86,2.86,0,0,1,.9-.75A1,1,0,0,1,412.33,303.88Z" style="fill:#eb996e"></path><path d="M475.68,307.4c-.05.08-1.15-.54-3-1.27a27,27,0,0,0-7.67-1.74,26.39,26.39,0,0,0-7.83.63c-2,.46-3.14.93-3.18.84a3.3,3.3,0,0,1,.8-.4,16.42,16.42,0,0,1,2.29-.8,23.57,23.57,0,0,1,15.73,1.13,20.73,20.73,0,0,1,2.16,1.1C475.44,307.19,475.7,307.37,475.68,307.4Z" style="fill:#eb996e"></path><path d="M441.05,305.27a18.18,18.18,0,0,0-5,2.07,18.89,18.89,0,0,0-3.83,3.79,3.7,3.7,0,0,1,.73-1.46,10.39,10.39,0,0,1,2.81-2.76,10.55,10.55,0,0,1,3.63-1.54A3.58,3.58,0,0,1,441.05,305.27Z" style="fill:#eb996e"></path><path d="M459.7,313.8a7.85,7.85,0,0,0-7.64-.57c0-.05.3-.39,1-.72A6,6,0,0,1,456,312a6,6,0,0,1,2.83.94C459.45,313.37,459.74,313.76,459.7,313.8Z" style="fill:#eb996e"></path><path d="M411.88,322.15a6.54,6.54,0,0,1-3.69,6.07,12.13,12.13,0,0,0,3.69-6.07Z" style="fill:#eb996e"></path><path d="M463.28,338.88a5.76,5.76,0,0,1-1.59,1.66,11.7,11.7,0,0,1-10.62,2,5.44,5.44,0,0,1-2.08-1c0-.08.83.3,2.18.62a13.31,13.31,0,0,0,5.36.15,13.14,13.14,0,0,0,4.94-2.08C462.61,339.45,463.22,338.82,463.28,338.88Z" style="fill:#eb996e"></path></g><g id="freepik--Bricks--inject-228"><rect x="439.93" y="156.64" width="32.32" height="76.65" transform="translate(143.52 580.1) rotate(-74.08)" style="fill:#ebebeb"></rect><path d="M488.52,221s0-.2.14-.57.25-.93.44-1.63c.4-1.45,1-3.54,1.73-6.22,1.51-5.38,3.68-13.14,6.37-22.71l.13.23-73.73-21h0l.32-.18c-3.12,10.89-6.12,21.4-8.88,31.07l-.17-.3,52.8,15.17L483,219.37l4.1,1.21,1.07.32.37.12-.35-.09-1.05-.28-4.07-1.13-15.29-4.29-53-15-.24-.06.06-.24c2.76-9.68,5.75-20.19,8.86-31.09l.07-.25.25.08h0l73.69,21.09.18.05-.05.18c-2.78,9.6-5,17.37-6.6,22.77-.78,2.65-1.38,4.72-1.8,6.15-.21.68-.36,1.21-.48,1.58S488.52,221,488.52,221Z" style="fill:#263238"></path><rect x="285.04" y="281.71" width="32.32" height="76.65" rx="3.26" transform="translate(-135.53 369.19) rotate(-53.16)" style="fill:#e0e0e0"></rect><path d="M319.57,354s.15.11.48.27a3.24,3.24,0,0,0,3.81-.71c.63-.79,1.32-1.78,2.13-2.85l13.56-18.26a3.08,3.08,0,0,0,.07-3.29,4.25,4.25,0,0,0-1.31-1.25l-1.56-1.17-6.55-4.89-14.45-10.79-33.08-24.76a3,3,0,0,0-2.38-.54,3.1,3.1,0,0,0-2,1.41L275,291.48l-6.32,8.43L265.62,304c-.5.68-1,1.35-1.52,2l-.75,1a6.91,6.91,0,0,0-.67,1,3,3,0,0,0-.14,2.24A3.38,3.38,0,0,0,264,312l3.85,2.89,27,20.28L313,348.91l4.93,3.75,1.27,1,.42.35a4.49,4.49,0,0,1-.45-.31l-1.31-.94-5-3.67L294.58,335.5l-27.05-20.19c-1.27-1-2.55-1.92-3.86-2.89a3.83,3.83,0,0,1-1.6-2,3.55,3.55,0,0,1,.16-2.6,6.15,6.15,0,0,1,.72-1.08l.75-1,1.52-2,3.08-4.12,6.32-8.44,3.23-4.31a3.64,3.64,0,0,1,2.34-1.61,3.52,3.52,0,0,1,2.8.64L316,310.67l14.42,10.83,6.53,4.91q.78.6,1.56,1.17A4.72,4.72,0,0,1,340,329a3.46,3.46,0,0,1-.09,3.69l-13.71,18.17c-.82,1.07-1.51,2-2.18,2.84a3.33,3.33,0,0,1-2.38,1,3.16,3.16,0,0,1-1.57-.39A1.82,1.82,0,0,1,319.57,354Z" style="fill:#263238"></path><path d="M279.57,292.24a99.84,99.84,0,0,1-6.09,8A98,98,0,0,1,267,308a99.84,99.84,0,0,1,6.09-8A98,98,0,0,1,279.57,292.24Z" style="fill:#263238"></path><path d="M299.34,324.35A36.88,36.88,0,0,1,297,318.7a35.23,35.23,0,0,1-1.9-5.84,36.75,36.75,0,0,1,2.38,5.66A35,35,0,0,1,299.34,324.35Z" style="fill:#263238"></path><path d="M308.17,335.34a4.7,4.7,0,0,1-.61-1c-.37-.63-.87-1.57-1.48-2.74-1.21-2.34-2.78-5.62-4.34-9.32s-2.8-7.13-3.62-9.63c-.41-1.25-.73-2.26-.93-3a5.19,5.19,0,0,1-.26-1.12,4.54,4.54,0,0,1,.46,1.05c.29.8.65,1.77,1.08,2.92.91,2.46,2.2,5.85,3.75,9.55s3.07,7,4.19,9.36l1.33,2.81A4.39,4.39,0,0,1,308.17,335.34Z" style="fill:#263238"></path><path d="M312.39,334a40.76,40.76,0,0,1-3.69-8.37,40.76,40.76,0,0,1,3.69,8.37Z" style="fill:#263238"></path><rect x="109.86" y="68.25" width="76.65" height="32.32" transform="translate(-10.12 20.98) rotate(-7.83)" style="fill:#e0e0e0"></rect><path d="M188.36,95.2s0-.2-.1-.58-.15-1-.25-1.67c-.22-1.48-.53-3.63-.93-6.39-.78-5.53-1.91-13.51-3.31-23.35l.21.16L108.06,73.88h0l.22-.3c1.54,11.23,3,22,4.4,32l-.28-.21L166.82,98l15.81-2.11,4.24-.55,1.1-.13.39,0-.36.06-1.06.17-4.18.6L167,98.26l-54.58,7.63-.24,0,0-.24c-1.37-10-2.86-20.79-4.41-32l0-.25.26,0h0L183.93,63l.18,0,0,.19c1.32,9.9,2.38,17.92,3.13,23.49.35,2.75.63,4.88.82,6.36l.21,1.64Z" style="fill:#263238"></path></g></svg>